<svg width="64" height="50" viewBox="0 0 64 50" fill="none" xmlns="http://www.w3.org/2000/svg">
<path d="M3.65115 29.7121C3.91933 30.4228 4.29062 31.0305 4.76509 31.5351C5.23956 32.0399 5.80167 32.4261 6.45141 32.6939C7.10122 32.9617 7.80772 33.0956 8.57098 33.0956C9.31363 33.0956 10.0098 32.9565 10.6596 32.6784C11.3094 32.4002 11.8767 32.0089 12.3614 31.5042C12.8461 30.9995 13.2226 30.3971 13.4908 29.6967C13.759 28.9963 13.893 28.2136 13.893 27.3483V14H17.142V35.6292H13.924V33.6208C13.202 34.3829 12.3511 34.97 11.3712 35.3821C10.3914 35.794 9.33424 36 8.19969 36C7.04446 36 5.96667 35.7991 4.96618 35.3974C3.96575 34.9958 3.09932 34.4242 2.36707 33.6826C1.63483 32.941 1.05718 32.0502 0.634337 31.0099C0.211423 29.9696 0 28.8109 0 27.5337V14H3.24891V27.3483C3.24891 28.2136 3.38297 29.0014 3.65115 29.7121Z" fill="#bdbdbd"/>
<path d="M22.7422 14V21.8792C23.4642 21.1582 24.2997 20.5867 25.2486 20.1643C26.1974 19.742 27.2289 19.5309 28.3427 19.5309C29.498 19.5309 30.5808 19.7471 31.5917 20.1797C32.6024 20.6123 33.4791 21.1994 34.2217 21.941C34.9644 22.6826 35.5523 23.558 35.9855 24.5674C36.4186 25.5768 36.6352 26.648 36.6352 27.7809C36.6352 28.9138 36.4186 29.9799 35.9855 30.9789C35.5523 31.978 34.9644 32.8483 34.2217 33.5898C33.4791 34.3314 32.6024 34.9185 31.5917 35.3511C30.5808 35.7837 29.4979 35.9999 28.3427 35.9999C27.2288 35.9999 26.1923 35.7888 25.2331 35.3665C24.2739 34.9442 23.4333 34.3726 22.7113 33.6516V35.6292H19.6171V14H22.7422ZM23.098 29.9129C23.3765 30.5721 23.7633 31.1489 24.2584 31.6433C24.7535 32.1377 25.3311 32.5291 25.9911 32.8175C26.6513 33.1059 27.3629 33.2501 28.1262 33.2501C28.8688 33.2501 29.5701 33.1059 30.2302 32.8175C30.8903 32.5291 31.4627 32.1378 31.9475 31.6433C32.4323 31.149 32.819 30.5721 33.1078 29.9129C33.3966 29.2538 33.541 28.5431 33.541 27.7809C33.541 27.0187 33.3966 26.3029 33.1078 25.6334C32.819 24.9639 32.4323 24.382 31.9475 23.8876C31.4627 23.3933 30.8904 23.007 30.2302 22.729C29.5701 22.4509 28.8688 22.3118 28.1262 22.3118C27.3836 22.3118 26.6822 22.4508 26.0222 22.729C25.3621 23.0071 24.7845 23.3933 24.2894 23.8876C23.7943 24.382 23.4024 24.9639 23.1136 25.6334C22.8248 26.3029 22.6804 27.0187 22.6804 27.7809C22.6803 28.5431 22.8196 29.2538 23.098 29.9129Z" fill="#bdbdbd"/>
<path d="M38.3986 24.5984C38.8111 23.6097 39.3785 22.7394 40.1004 21.9875C40.8223 21.2356 41.6785 20.6434 42.6686 20.2108C43.6588 19.7783 44.7314 19.562 45.8866 19.562C47.0211 19.562 48.0732 19.768 49.0427 20.1799C50.0122 20.5919 50.8476 21.1636 51.549 21.8949C52.2504 22.6261 52.7971 23.4913 53.1889 24.4903C53.5809 25.4894 53.7768 26.5761 53.7768 27.7502V28.7699H40.9359C41.0391 29.4085 41.2454 30.0007 41.5547 30.5465C41.8642 31.0924 42.2509 31.5662 42.715 31.9679C43.1792 32.3696 43.7052 32.6838 44.2931 32.9103C44.881 33.1369 45.505 33.2502 46.1651 33.2502C48.0423 33.2502 49.5585 32.4777 50.7136 30.9327L52.9724 32.6013C52.1885 33.6518 51.2191 34.4758 50.0639 35.0732C48.9087 35.6705 47.6091 35.9692 46.1652 35.9692C44.9893 35.9692 43.8909 35.7632 42.8698 35.3512C41.8487 34.9393 40.9618 34.3625 40.2088 33.6209C39.4559 32.8792 38.8629 32.009 38.4297 31.0099C37.9965 30.0109 37.7799 28.9242 37.7799 27.7501C37.7797 26.6378 37.9861 25.5872 38.3986 24.5984ZM42.746 23.3779C41.8693 24.1092 41.2866 25.0825 40.9978 26.2979H50.6208C50.3526 25.0825 49.7802 24.1092 48.9035 23.3779C48.0268 22.6467 47.0005 22.281 45.8248 22.281C44.6489 22.281 43.6227 22.6467 42.746 23.3779Z" fill="#bdbdbd"/>
<path d="M59.6247 23.7331C58.9646 24.454 58.6345 25.4325 58.6345 26.6685V35.6292H55.5093V19.8708H58.6035V21.8174C58.9955 21.1788 59.506 20.6741 60.1352 20.3033C60.7643 19.9325 61.5121 19.7471 62.3785 19.7471H63.4615V22.6516H62.1619C61.1305 22.6516 60.2848 23.0121 59.6247 23.7331Z" fill="#bdbdbd"/>
</svg>
