<svg width="120" height="50" viewBox="0 0 120 50" fill="none" xmlns="http://www.w3.org/2000/svg">
<g clip-path="url(#clip0)">
<path d="M70.2241 4.76285L77.1121 7.47405L70.2241 10.0387V13.7025L82.0215 8.93957V6.00854L70.2241 1.24561V4.76285Z" fill="#bdbdbd"/>
<path d="M6.98706 18.3923C3.68965 18.3923 1.27154 19.8579 1.05172 22.9354H4.71551V22.8622C4.78878 21.8363 5.74137 21.1035 6.76723 21.1768C8.15947 21.1768 8.81896 21.9829 8.81896 23.3751V24.0346H7.13361C3.54309 24.0346 0.612061 25.1337 0.612061 28.5777V28.7242C0.612061 31.5087 2.66378 32.7544 5.15516 32.7544C6.69396 32.8277 8.0862 32.0949 8.96551 30.9225V32.5346H12.7026V23.3018C12.6293 19.7846 10.2112 18.3923 6.98706 18.3923ZM6.18103 30.0432C4.86206 30.0432 4.27585 29.3837 4.27585 28.4311V28.2846C4.27585 27.0389 5.22844 26.526 7.13361 26.526H8.6724V27.8449C8.74568 29.3104 7.49999 30.0432 6.18103 30.0432Z" fill="#bdbdbd"/>
<path d="M21.4957 29.8966C19.6638 29.8966 18.7112 28.651 18.7112 25.8665V25.4268C18.7112 22.7156 19.8103 21.3966 21.4957 21.3966C22.8146 21.3966 23.5474 22.276 23.7672 23.5949H27.431C27.1379 20.0044 24.5 18.3923 21.4224 18.3923C17.7586 18.3923 14.8276 20.8837 14.8276 25.5734V25.7199C14.8276 30.4096 17.6121 32.7544 21.4224 32.7544C25.1595 32.7544 27.2845 30.4829 27.5776 27.4053H24.0603C23.7672 28.9441 22.8146 29.8966 21.4957 29.8966Z" fill="#bdbdbd"/>
<path d="M35.7846 29.8966C33.9527 29.8966 33.0001 28.651 33.0001 25.8665V25.4268C33.0001 22.7156 34.0992 21.3966 35.7846 21.3966C37.1035 21.3966 37.8363 22.276 38.0561 23.5949H41.7199C41.4268 20.0044 38.7889 18.3923 35.7113 18.3923C32.0475 18.3923 29.1165 20.8837 29.1165 25.5734V25.7199C29.1165 30.4096 31.9009 32.7544 35.7113 32.7544C39.4483 32.7544 41.5733 30.4829 41.7932 27.4053H38.3492C38.1294 28.9441 37.1035 29.8966 35.7846 29.8966Z" fill="#bdbdbd"/>
<path d="M50.2198 29.9699C48.5345 29.9699 47.5086 29.0173 47.362 26.526H56.3017V24.9139C56.3017 20.3708 53.4439 18.3923 50 18.3923C46.2629 18.3923 43.4052 20.957 43.4052 25.5734V25.8665C43.4052 30.4829 46.1164 32.8277 50.0733 32.8277C53.6638 32.8277 55.862 30.8492 56.2284 28.2113H52.6379C52.4914 29.3104 51.3922 30.1165 50.2198 29.9699ZM50 21.0303C51.5388 21.0303 52.4914 21.9096 52.5646 23.9613H47.4353C47.7284 21.763 48.8276 21.1035 50 21.0303Z" fill="#bdbdbd"/>
<path d="M66.7069 18.3922C64.9483 18.3189 63.3362 19.1982 62.5302 20.737V18.6853H58.7198V32.4612H62.5302V24.0344C62.5302 23.8879 62.5302 23.8146 62.5302 23.668C62.6035 22.4224 63.7026 21.3965 64.9483 21.4698C66.3405 21.4698 67 22.2025 67 23.8146V32.4612H70.8836V23.2284C70.8836 19.8577 69.1983 18.3922 66.7069 18.3922Z" fill="#bdbdbd"/>
<path d="M78.0647 28.0646V21.543H80.7026V18.6853H78.0647V14.5085L74.2543 16.1206V18.6853H72.569V21.543H74.181V28.5042C74.181 31.2887 75.5733 32.681 78.5776 32.681C79.3104 32.681 80.0431 32.6077 80.7759 32.3879V29.3835C80.3362 29.5301 79.8966 29.6034 79.4569 29.6034C78.5776 29.6034 78.0647 29.0904 78.0647 28.0646Z" fill="#bdbdbd"/>
<path d="M91.3275 27.2586C91.3275 27.4051 91.3275 27.4784 91.3275 27.625C91.2543 28.8706 90.1551 29.8965 88.9094 29.8232C87.5172 29.8232 86.931 29.0905 86.931 27.4784V18.6853H83.0474V27.9913C83.0474 31.2155 84.8793 32.7543 87.3706 32.7543C89.056 32.8275 90.5948 31.9482 91.4008 30.4094V32.4612H95.2844V18.6853H91.4008L91.3275 27.2586Z" fill="#bdbdbd"/>
<path d="M101.879 21.1768V18.6122H98.069V32.388H101.879V25.2803C101.879 23.0087 103.418 22.2027 106.056 22.2027V18.3923C104.151 18.3923 102.466 19.4915 101.879 21.1768Z" fill="#bdbdbd"/>
<path d="M120.125 24.8406C120.125 20.2975 117.267 18.3923 113.823 18.3923C110.086 18.3923 107.229 20.957 107.229 25.5734V25.8665C107.229 30.4829 109.94 32.8277 113.897 32.8277C117.487 32.8277 119.612 30.8492 120.052 28.2113H116.461C116.168 29.3837 115.069 30.1165 113.897 30.0432C112.211 30.0432 111.185 29.0906 111.039 26.5992H119.979V24.8406H120.125ZM111.185 23.9613C111.479 21.6897 112.578 21.0303 113.823 21.0303C115.362 21.0303 116.315 21.9096 116.388 23.9613H111.185Z" fill="#bdbdbd"/>
</g>
<defs>
<clipPath id="clip0">
<rect width="120" height="50" fill="white"/>
</clipPath>
</defs>
</svg>
