<svg width="100" height="50" viewBox="0 0 100 50" fill="none" xmlns="http://www.w3.org/2000/svg">
<path d="M14.9993 10.0496C6.74053 10.0496 0.045166 16.7447 0.045166 25.0035C0.045166 33.2626 6.74053 39.9572 14.9993 39.9572C23.2589 39.9572 29.9536 33.2626 29.9536 25.0035C29.9536 16.7453 23.2591 10.0496 14.9993 10.0496ZM21.8571 31.6174C21.5893 32.0567 21.0143 32.196 20.575 31.9263C17.0639 29.7817 12.6439 29.296 7.43856 30.4853C6.93695 30.5996 6.43695 30.2853 6.32267 29.7835C6.20785 29.2817 6.52088 28.7817 7.02374 28.6674C12.7202 27.366 17.6064 27.9263 21.5482 30.3353C21.9875 30.6049 22.1268 31.1781 21.8571 31.6174ZM23.6875 27.5456C23.35 28.0942 22.6321 28.2674 22.0839 27.9299C18.0643 25.4592 11.937 24.7437 7.18249 26.1869C6.56588 26.3731 5.91463 26.0256 5.72749 25.4101C5.54177 24.7935 5.88945 24.1435 6.50499 23.956C11.9359 22.3081 18.6875 23.1063 23.3036 25.9429C23.8518 26.2804 24.025 26.9981 23.6875 27.5456ZM23.8446 23.3056C19.025 20.443 11.0732 20.1797 6.4716 21.5763C5.73267 21.8005 4.95124 21.3833 4.72731 20.6444C4.50338 19.9051 4.92017 19.1242 5.65963 18.8996C10.942 17.296 19.7232 17.6058 25.2721 20.8999C25.9382 21.2944 26.1561 22.1528 25.7614 22.8165C25.3686 23.4812 24.5071 23.7003 23.8446 23.3056ZM40.7304 23.8542C38.1482 23.2385 37.6893 22.8063 37.6893 21.8983C37.6893 21.0405 38.4964 20.4631 39.6982 20.4631C40.8625 20.4631 42.0161 20.9015 43.2268 21.804C43.2625 21.8313 43.3089 21.8422 43.3536 21.8351C43.4 21.8283 43.4393 21.8035 43.4661 21.7662L44.7268 19.989C44.7786 19.9158 44.7643 19.8149 44.6946 19.759C43.2536 18.6031 41.6321 18.0412 39.7357 18.0412C36.9482 18.0412 35 19.7142 35 22.108C35 24.6749 36.6804 25.5838 39.5839 26.2854C42.0536 26.8546 42.4714 27.3313 42.4714 28.1835C42.4714 29.1281 41.6286 29.7156 40.2714 29.7156C38.7643 29.7156 37.5339 29.2067 36.1589 28.0174C36.125 27.9871 36.0786 27.9746 36.0357 27.9763C35.9893 27.9799 35.9482 28.0013 35.9196 28.0353L34.5053 29.7174C34.4464 29.7888 34.4536 29.8924 34.5214 29.9531C36.1214 31.3817 38.0893 32.1353 40.2143 32.1353C43.2178 32.1353 45.1589 30.4942 45.1589 27.9531C45.1643 25.809 43.8803 24.6215 40.7357 23.8565L40.7304 23.8542ZM51.9554 21.3078C50.6536 21.3078 49.5857 21.8206 48.7036 22.8715V21.6887C48.7036 21.5953 48.6286 21.5192 48.5357 21.5192H46.2232C46.1304 21.5192 46.0554 21.5953 46.0554 21.6887V34.8317C46.0554 34.9246 46.1304 35.0013 46.2232 35.0013H48.5357C48.6286 35.0013 48.7036 34.9246 48.7036 34.8317V30.6835C49.5857 31.671 50.6536 32.1549 51.9554 32.1549C54.375 32.1549 56.825 30.2924 56.825 26.7319C56.8286 23.1706 54.3786 21.3076 51.9571 21.3076L51.9554 21.3078ZM54.1357 26.7319C54.1357 28.5442 53.0196 29.8103 51.4196 29.8103C49.8393 29.8103 48.6464 28.4871 48.6464 26.7319C48.6464 24.9765 49.8393 23.6537 51.4196 23.6537C52.9929 23.6535 54.1357 24.948 54.1357 26.7319ZM63.1018 21.3078C59.9857 21.3078 57.5446 23.7071 57.5446 26.7706C57.5446 29.8013 59.9696 32.1746 63.0643 32.1746C66.1911 32.1746 68.6393 29.7835 68.6393 26.7319C68.6393 23.6906 66.2071 21.3078 63.1018 21.3078ZM63.1018 29.8281C61.4446 29.8281 60.1946 28.496 60.1946 26.731C60.1946 24.958 61.4018 23.6713 63.0643 23.6713C64.7321 23.6713 65.9893 25.0029 65.9893 26.7697C65.9893 28.5424 64.775 29.8281 63.1018 29.8281ZM75.2929 21.5192H72.7482V18.9181C72.7482 18.8249 72.6732 18.7488 72.5804 18.7488H70.2679C70.175 18.7488 70.0982 18.8249 70.0982 18.9181V21.5192H68.9875C68.8946 21.5192 68.8196 21.5953 68.8196 21.6887V23.6756C68.8196 23.7688 68.8946 23.8451 68.9875 23.8451H70.0982V28.9871C70.0982 31.0638 71.1321 32.1174 73.1732 32.1174C74.0018 32.1174 74.6893 31.946 75.3375 31.5781C75.3911 31.5496 75.4232 31.4924 75.4232 31.4317V29.5388C75.4232 29.4817 75.3929 29.4263 75.3429 29.396C75.2929 29.3638 75.2304 29.3621 75.1786 29.3888C74.7339 29.6121 74.3036 29.7156 73.8214 29.7156C73.0804 29.7156 72.7482 29.3781 72.7482 28.6246V23.846H75.2929C75.3857 23.846 75.4607 23.7699 75.4607 23.6765V21.6897C75.4643 21.5963 75.3893 21.5203 75.2946 21.5203L75.2929 21.5192ZM84.1572 21.5294V21.2099C84.1572 20.2701 84.5179 19.851 85.325 19.851C85.8071 19.851 86.1946 19.9467 86.6286 20.0913C86.6822 20.1081 86.7375 20.0997 86.7804 20.0678C86.825 20.0358 86.85 19.9846 86.85 19.9303V17.9821C86.85 17.9076 86.8036 17.8417 86.7304 17.8197C86.2732 17.6835 85.6875 17.5437 84.8089 17.5437C82.675 17.5437 81.5446 18.7462 81.5446 21.0199V21.5092H80.4339C80.3411 21.5092 80.2643 21.5853 80.2643 21.6785V23.6756C80.2643 23.7688 80.3411 23.8451 80.4339 23.8451H81.5446V31.7746C81.5446 31.8692 81.6214 31.9442 81.7143 31.9442H84.025C84.1197 31.9442 84.1946 31.8692 84.1946 31.7746V23.8456H86.3536L89.6607 31.7746C89.2857 32.6067 88.9161 32.7728 88.4125 32.7728C88.0054 32.7728 87.575 32.6513 87.1375 32.4103C87.0964 32.3888 87.0464 32.3853 87.0036 32.3978C86.9589 32.4138 86.9214 32.446 86.9036 32.4888L86.1196 34.2085C86.0821 34.2906 86.1143 34.3853 86.1929 34.4281C87.0107 34.871 87.7482 35.0603 88.6607 35.0603C90.3679 35.0603 91.3125 34.2638 92.1429 32.1246L96.1536 21.7608C96.175 21.7087 96.1679 21.6497 96.1357 21.6035C96.1054 21.5576 96.0536 21.5299 95.9982 21.5299H93.5911C93.5179 21.5299 93.4536 21.5758 93.4304 21.6435L90.9643 28.6853L88.2643 21.6388C88.2393 21.5733 88.1768 21.5299 88.1071 21.5299L84.1572 21.5294ZM79.0179 21.5192H76.7054C76.6125 21.5192 76.5357 21.5953 76.5357 21.6887V31.7746C76.5357 31.8692 76.6125 31.9442 76.7054 31.9442H79.0179C79.1107 31.9442 79.1875 31.8692 79.1875 31.7746V21.6894C79.1875 21.596 79.1125 21.5192 79.0179 21.5192ZM77.875 16.9265C76.9589 16.9265 76.2161 17.668 76.2161 18.5838C76.2161 19.5003 76.9589 20.2426 77.875 20.2426C78.7911 20.2426 79.5322 19.5003 79.5322 18.5838C79.5322 17.6681 78.7893 16.9265 77.875 16.9265Z" fill="#bdbdbd"/>
</svg>
