<svg width="105" height="50" viewBox="0 0 105 50" fill="none" xmlns="http://www.w3.org/2000/svg">
<path d="M17.5175 12.8306L27.4834 36.5851V12.8306H17.5175ZM0.522827 12.8306V36.5851L10.4965 12.8306H0.522827ZM9.6493 31.8072H14.2963L16.1953 36.5851H20.3565L14.0076 21.5847L9.6493 31.8072Z" fill="#bdbdbd"/>
<path d="M41.7159 12.7682L36.3206 36.5857H39.5861L41.006 30.0132H45.9753L47.3597 36.5857H50.6607L45.5849 12.7682H41.7159ZM41.3964 27.3622L42.5323 21.6731C42.8517 20.1535 43.2067 17.9625 43.4552 16.2314H43.5971C43.8456 17.9277 44.1651 20.0475 44.4845 21.6731L45.5849 27.3622H41.3964ZM63.125 12.1321H59.7884V21.0723H59.7174C59.114 19.7648 58.0136 19.1287 56.6293 19.1287C53.8967 19.1287 51.305 21.99 51.305 28.069C51.305 33.4052 53.2572 36.8679 56.4518 36.8679C58.1899 36.8679 59.5038 35.7017 60.0718 34.4995H60.1788L60.3912 36.5846H63.2658C63.1948 35.383 63.1238 33.4753 63.1238 32.1677L63.125 12.1321ZM59.7884 30.5433C59.7884 30.9314 59.7523 31.3561 59.6819 31.6376C59.114 33.6867 58.1195 34.0766 57.3747 34.0766C55.5999 34.0766 54.677 31.6035 54.677 28.0695C54.677 24.889 55.3864 21.9912 57.4806 21.9912C58.6874 21.9912 59.5748 23.3341 59.7523 24.889C59.7884 25.243 59.7884 25.6317 59.7884 25.9498V30.5433ZM71.2493 19.1287C68.0908 19.1287 65.1447 21.7791 65.1447 28.0336C65.1447 33.9359 67.6293 36.8685 71.073 36.8685H71.1091C73.7352 36.8685 77.1078 34.7834 77.1078 27.9635C77.106 22.1685 74.6569 19.1287 71.2493 19.1287ZM71.1789 34.2528H71.1428C68.9782 34.2528 68.4806 30.8602 68.4806 27.9983C68.4806 25.4185 68.9072 21.7432 71.1067 21.7432C73.2364 21.7432 73.6979 25.4185 73.6979 27.9983C73.6991 30.614 73.237 34.2528 71.1789 34.2528ZM86.1444 19.1287C84.6187 19.1287 83.4118 19.8001 82.5244 21.3545H82.4534V12.1321H79.1169V32.1689C79.1169 33.4765 79.0459 35.4207 78.9749 36.5857H81.85L82.0275 34.4306H82.1689C82.9149 35.9502 83.8727 36.8696 85.5765 36.8696C88.4161 36.8696 90.9369 33.8646 90.9369 27.7167C90.9357 22.4506 89.0899 19.1287 86.1444 19.1287ZM84.831 34.0766C84.156 34.0766 83.1273 33.652 82.5948 31.5676C82.4883 31.2854 82.4534 30.8955 82.4534 30.5068V25.7018C82.4534 25.3472 82.4895 24.8884 82.5605 24.5356C82.809 23.2987 83.6964 21.9912 84.7955 21.9912C86.7833 21.9912 87.5654 24.6416 87.5654 27.9282C87.5642 31.4615 86.8182 34.0766 84.831 34.0766ZM98.7695 19.1287C95.1839 19.1287 92.5939 22.5919 92.5939 28.2097C92.5939 33.5106 94.8662 36.7618 99.1961 36.7618C100.722 36.7618 102.284 36.4797 103.314 35.9496L102.816 33.5466C102.07 33.9005 101.041 34.1821 99.835 34.1821C97.8111 34.1821 95.895 33.0871 95.8589 28.6703L103.952 28.7062C103.988 28.2468 104.022 27.7162 104.022 26.8686C104.022 22.5566 102.355 19.1287 98.7695 19.1287ZM95.8944 26.302C96.0015 24.1463 96.7818 21.6372 98.5205 21.6372C99.8338 21.6372 100.899 23.2628 100.863 26.302H95.8944Z" fill="#bdbdbd"/>
</svg>
