<svg width="140" height="50" viewBox="0 0 140 50" fill="none" xmlns="http://www.w3.org/2000/svg">
<path d="M49.0963 27.279L48.2673 29.6511H48.1982C48.0601 29.1162 47.8067 28.3022 47.3922 27.3255L42.9478 16.0464H38.5954V34.0232H41.474V22.9301C41.474 22.2325 41.474 21.4418 41.4509 20.465C41.4279 19.9766 41.3819 19.6045 41.3588 19.3255H41.4279C41.5661 20.0232 41.7273 20.5348 41.8424 20.8604L47.185 33.9766H49.2115L54.508 20.7441C54.6231 20.4418 54.7383 19.8371 54.8534 19.3255H54.9225C54.8534 20.6511 54.8073 21.8371 54.7843 22.558V33.9534H57.8471V15.9999H53.6559L49.0963 27.279ZM60.7486 21.0697H63.7423V33.9534H60.7486V21.0697ZM62.2685 15.6278C61.7619 15.6278 61.3474 15.8139 61.002 16.1394C60.6565 16.465 60.4723 16.8836 60.4723 17.3952C60.4723 17.8836 60.6565 18.3022 61.002 18.6278C61.3474 18.9534 61.7619 19.1162 62.2685 19.1162C62.7751 19.1162 63.2127 18.9301 63.5351 18.6278C63.8805 18.3022 64.0647 17.8836 64.0647 17.3952C64.0647 16.9069 63.8805 16.4883 63.5351 16.1394C63.2357 15.8139 62.7982 15.6278 62.2685 15.6278ZM74.3584 20.9534C73.8057 20.8371 73.23 20.7673 72.6773 20.7673C71.3186 20.7673 70.0751 21.0697 69.0388 21.6743C68.0026 22.279 67.1735 23.1162 66.6439 24.1627C66.0912 25.2325 65.8149 26.465 65.8149 27.8836C65.8149 29.1162 66.0912 30.2092 66.6209 31.2092C67.1505 32.1859 67.8874 32.9766 68.8776 33.5115C69.8218 34.0464 70.9272 34.3255 72.1707 34.3255C73.5984 34.3255 74.8189 34.0232 75.7861 33.465L75.8092 33.4418V30.6511L75.694 30.7441C75.2565 31.0697 74.7498 31.3487 74.2432 31.5115C73.7136 31.6976 73.23 31.7906 72.8155 31.7906C71.618 31.7906 70.6738 31.4418 70.006 30.6743C69.3152 29.9301 68.9697 28.9069 68.9697 27.6278C68.9697 26.3022 69.3152 25.2557 70.029 24.4883C70.7429 23.7208 71.6871 23.3255 72.8385 23.3255C73.8057 23.3255 74.7959 23.6511 75.694 24.3022L75.8092 24.3952V21.4418L75.7861 21.4185C75.3946 21.2557 74.9571 21.0697 74.3584 20.9534ZM84.2375 20.8604C83.5006 20.8604 82.8097 21.0929 82.211 21.5813C81.7044 21.9999 81.359 22.6045 81.0596 23.3255H81.0366V21.0697H78.0429V33.9534H81.0366V27.372C81.0366 26.2557 81.2669 25.3255 81.7735 24.6511C82.2801 23.9534 82.9249 23.6045 83.7079 23.6045C83.9842 23.6045 84.2605 23.6743 84.606 23.7208C84.9284 23.8139 85.1586 23.9069 85.3198 24.0232L85.435 24.1162V21.0929L85.3659 21.0697C85.1586 20.9301 84.7441 20.8604 84.2375 20.8604ZM92.3895 20.7906C90.2939 20.7906 88.6129 21.4185 87.4384 22.6511C86.241 23.8836 85.6653 25.5813 85.6653 27.7208C85.6653 29.7208 86.264 31.3487 87.4154 32.5348C88.5668 33.6976 90.1327 34.3022 92.0902 34.3022C94.1397 34.3022 95.7747 33.6743 96.9491 32.4185C98.1466 31.1627 98.7223 29.4883 98.7223 27.4185C98.7223 25.372 98.1696 23.7441 97.0412 22.558C95.9589 21.372 94.37 20.7906 92.3895 20.7906ZM94.7845 30.6976C94.2318 31.4185 93.3567 31.7673 92.2744 31.7673C91.1921 31.7673 90.317 31.4185 89.6952 30.6511C89.0734 29.9301 88.7741 28.8836 88.7741 27.558C88.7741 26.1859 89.0965 25.1394 89.6952 24.3952C90.317 23.6511 91.169 23.279 92.2514 23.279C93.3107 23.279 94.1397 23.6278 94.7384 24.3487C95.3371 25.0697 95.6595 26.1162 95.6595 27.4883C95.6135 28.8836 95.3602 29.9766 94.7845 30.6976ZM105.401 26.4185C104.456 26.0232 103.858 25.7208 103.581 25.465C103.351 25.2325 103.236 24.9069 103.236 24.4883C103.236 24.1394 103.374 23.7906 103.719 23.558C104.065 23.3255 104.456 23.2092 105.032 23.2092C105.539 23.2092 106.068 23.3022 106.575 23.4418C107.082 23.5813 107.542 23.7906 107.911 24.0697L108.026 24.1627V21.3255L107.957 21.3022C107.611 21.1627 107.151 21.0232 106.598 20.9069C106.045 20.8139 105.539 20.7673 105.124 20.7673C103.696 20.7673 102.522 21.1162 101.601 21.8836C100.68 22.6045 100.242 23.5813 100.242 24.7208C100.242 25.3255 100.334 25.8604 100.542 26.3022C100.749 26.7441 101.048 27.1627 101.463 27.5115C101.877 27.8371 102.476 28.2092 103.305 28.558C103.996 28.8604 104.525 29.0929 104.848 29.279C105.17 29.465 105.377 29.6743 105.539 29.8371C105.654 30.0232 105.723 30.2557 105.723 30.558C105.723 31.4185 105.078 31.8371 103.765 31.8371C103.259 31.8371 102.729 31.7441 102.107 31.5348C101.486 31.3255 100.91 31.0232 100.426 30.6743L100.311 30.5813V33.5348L100.38 33.558C100.818 33.7673 101.348 33.9069 101.992 34.0697C102.637 34.1859 103.213 34.279 103.719 34.279C105.262 34.279 106.529 33.9301 107.427 33.1627C108.348 32.4185 108.832 31.465 108.832 30.2325C108.832 29.372 108.601 28.6045 108.095 28.0232C107.427 27.465 106.598 26.8836 105.401 26.4185ZM116.73 20.7906C114.635 20.7906 112.954 21.4185 111.779 22.6511C110.605 23.8836 110.006 25.5813 110.006 27.7208C110.006 29.7208 110.605 31.3487 111.756 32.5348C112.908 33.6976 114.474 34.3022 116.431 34.3022C118.481 34.3022 120.116 33.6743 121.29 32.4185C122.488 31.1627 123.063 29.4883 123.063 27.4185C123.063 25.372 122.511 23.7441 121.382 22.558C120.3 21.372 118.711 20.7906 116.73 20.7906ZM119.102 30.6976C118.55 31.4185 117.675 31.7673 116.592 31.7673C115.487 31.7673 114.635 31.4185 114.013 30.6511C113.391 29.9301 113.092 28.8836 113.092 27.558C113.092 26.1859 113.414 25.1394 114.013 24.3952C114.635 23.6511 115.487 23.279 116.569 23.279C117.606 23.279 118.458 23.6278 119.056 24.3487C119.655 25.0697 119.977 26.1162 119.977 27.4883C119.977 28.8836 119.678 29.9766 119.102 30.6976ZM139.068 23.558V21.0697H136.051V17.2557L135.959 17.279L133.104 18.1394L133.034 18.1627V21.0697H128.521V19.4418C128.521 18.6976 128.705 18.1162 129.028 17.7441C129.35 17.372 129.834 17.1859 130.432 17.1859C130.847 17.1859 131.284 17.279 131.768 17.4883L131.883 17.558V14.9301L131.814 14.9069C131.399 14.7673 130.847 14.6743 130.133 14.6743C129.235 14.6743 128.452 14.8836 127.738 15.2325C127.024 15.6278 126.494 16.1627 126.103 16.8836C125.711 17.5813 125.504 18.372 125.504 19.279V21.0697H123.409V23.5348H125.504V33.9534H128.521V23.558H133.034V30.1859C133.034 32.9069 134.301 34.279 136.834 34.279C137.249 34.279 137.686 34.2092 138.101 34.1394C138.538 34.0464 138.861 33.9301 139.045 33.8371L139.068 33.8139V31.3255L138.953 31.4185C138.769 31.5348 138.607 31.6278 138.331 31.6976C138.101 31.7673 137.893 31.7906 137.732 31.7906C137.133 31.7906 136.719 31.6511 136.42 31.3022C136.143 30.9766 136.005 30.4418 136.005 29.6511V23.558H139.068Z" fill="#bdbdbd"/>
<path d="M0 10H14.1163V24.2558H0V10Z" fill="#bdbdbd"/>
<path d="M15.5901 10H29.7065V24.2558H15.5901V10Z" fill="#bdbdbd"/>
<path d="M0 25.7441H14.1163V40H0V25.7441Z" fill="#bdbdbd"/>
<path d="M15.5901 25.7441H29.7065V40H15.5901V25.7441Z" fill="#bdbdbd"/>
</svg>
