<svg width="96" height="50" viewBox="0 0 96 50" fill="none" xmlns="http://www.w3.org/2000/svg">
<g clip-path="url(#clip0)">
<path fill-rule="evenodd" clip-rule="evenodd" d="M94.3696 17.9664V20.7643C92.8905 20.2171 91.5737 19.9404 90.4211 19.9404C89.7384 19.9404 89.1948 20.0643 88.7861 20.3038C88.3773 20.5454 88.1687 20.8427 88.1687 21.1938C88.1687 21.6604 88.6301 22.0754 89.5593 22.4471L92.2437 23.7274C94.4139 24.7412 95.4906 26.0875 95.4906 27.7786C95.4906 29.1848 94.9196 30.306 93.767 31.1361C92.6229 31.9744 91.0827 32.3894 89.1653 32.3894C88.2804 32.3894 87.4861 32.3523 86.7802 32.2738C86.0744 32.1995 85.2632 32.0467 84.3635 31.8278V28.8998C86.0133 29.447 87.5156 29.7237 88.8682 29.7237C90.4822 29.7237 91.285 29.2653 91.285 28.3402C91.285 27.8798 90.9563 27.5081 90.2884 27.217L87.307 25.9718C86.2071 25.4845 85.3896 24.894 84.8544 24.194C84.3277 23.4878 84.0601 22.6784 84.0601 21.7534C84.0601 20.4586 84.6163 19.4159 85.7162 18.623C86.8245 17.8363 88.2952 17.4419 90.124 17.4419C90.7182 17.4419 91.403 17.4935 92.1615 17.5885C92.9263 17.6897 93.6617 17.8136 94.3696 17.9664Z" fill="#bdbdbd"/>
<path fill-rule="evenodd" clip-rule="evenodd" d="M9.92941 17.9664V20.7643C8.45027 20.2171 7.13551 19.9404 5.98298 19.9404C5.29819 19.9404 4.75672 20.0643 4.34794 20.3038C3.9392 20.5454 3.7306 20.8427 3.7306 21.1938C3.7306 21.6604 4.19836 22.0754 5.12755 22.4471L7.81187 23.7274C9.97364 24.7412 11.0525 26.0875 11.0525 27.7786C11.0525 29.1848 10.4794 30.306 9.33524 31.1361C8.1827 31.9744 6.65091 32.3894 4.72724 32.3894C3.84227 32.3894 3.04582 32.3523 2.33997 32.2738C1.63413 32.1995 0.831351 32.0467 -0.0746241 31.8278V28.8998C1.58147 29.447 3.08378 29.7237 4.42802 29.7237C6.042 29.7237 6.84477 29.2653 6.84477 28.3402C6.84477 27.8798 6.51818 27.5081 5.85656 27.217L2.87517 25.9718C1.76686 25.4845 0.949343 24.894 0.422617 24.194C-0.112583 23.4878 -0.37384 22.6784 -0.37384 21.7534C-0.37384 20.4586 0.178209 19.4159 1.28436 18.623C2.38425 17.8363 3.85702 17.4419 5.68591 17.4419C6.2864 17.4419 6.96276 17.4935 7.72969 17.5885C8.48823 17.6897 9.22356 17.8136 9.92941 17.9664Z" fill="#bdbdbd"/>
<path fill-rule="evenodd" clip-rule="evenodd" d="M13.0056 17.7041H17.3777V32.1272H13.0056V17.7041Z" fill="#bdbdbd"/>
<path fill-rule="evenodd" clip-rule="evenodd" d="M31.463 17.7041V20.3699H24.9671V23.5683H30.6013V25.9718H24.9671V29.3293H31.5958V32.1272H20.7595V17.7041H31.463Z" fill="#bdbdbd"/>
<path fill-rule="evenodd" clip-rule="evenodd" d="M51.8735 17.7041V32.1272H47.792V22.6144L43.5572 32.2593H41.0372L36.9644 22.6144V32.1272H34.0125V17.7041H39.3495L42.9925 26.5335L46.8041 17.7041H51.8735Z" fill="#bdbdbd"/>
<path fill-rule="evenodd" clip-rule="evenodd" d="M65.9526 17.7041V20.3699H59.4922V23.5683H65.1264V25.9718H59.4922V29.3293H66.0854V32.1272H55.2491V17.7041H65.9526Z" fill="#bdbdbd"/>
<path fill-rule="evenodd" clip-rule="evenodd" d="M81.2935 17.7041V32.1272H76.6561L71.4521 22.8766V32.1272H68.502V17.7041H73.2746L78.344 26.7957V17.7041H81.2935Z" fill="#bdbdbd"/>
</g>
<defs>
<clipPath id="clip0">
<rect width="96" height="50" fill="white"/>
</clipPath>
</defs>
</svg>
