<svg width="64" height="50" viewBox="0 0 64 50" fill="none" xmlns="http://www.w3.org/2000/svg">
<path d="M18.7873 21.847V32.0284H15.5463V19.2309L22.2374 19.2376C25.0794 19.2376 26.0475 21.2417 26.0475 23.0621V32.0284H22.8124V23.0789C22.8124 22.3163 22.4176 21.8471 21.4655 21.8471H18.7873V21.847ZM40.8257 21.6941C39.7179 21.6941 38.8606 22.2636 38.5025 23.0367C38.2903 23.5009 38.2174 23.8566 38.1924 24.425H43.1786C43.1146 23.0367 42.485 21.6941 40.8257 21.6941ZM38.1924 26.6307C38.1924 28.2885 39.223 29.5086 41.0629 29.5086C42.4944 29.5086 43.2059 29.1119 44.0336 28.2885L46.0354 30.1998C44.7536 31.4651 43.4087 32.2336 41.0391 32.2336C37.9365 32.2336 34.9674 30.5419 34.9674 25.6115C34.9674 21.3989 37.5597 19.014 40.9661 19.014C44.4189 19.014 46.4137 21.8061 46.4137 25.4633V26.6307H38.1924ZM32.2315 32.0124C29.5912 32.0124 28.471 30.1744 28.471 28.3591V15.7442H31.7069V19.2309H34.1463V21.847H31.7069V28.1563C31.7069 28.8997 32.058 29.3124 32.8299 29.3124H34.1463V32.0124H32.2315ZM12.6626 17.4624H9.39938V14.3626H12.6626V17.4624ZM12.6708 32.163C10.2271 31.9281 9.39589 30.4459 9.39589 28.7355L9.39942 19.2309H12.6709V32.163H12.6708ZM51.5641 31.8895C49.1254 31.6543 48.2981 30.1744 48.2981 28.4664V13.9214H51.5641V31.8895ZM62.9815 16.0235C60.0217 1.59319 32.0104 0.679673 13.9553 11.6712V12.8846C31.992 3.61526 57.5726 3.66987 59.9032 16.9608C60.6829 21.3556 58.2064 25.9376 53.7835 28.5713V32.0171C59.1071 30.0695 64.5667 23.7541 62.9815 16.0235ZM30.1615 41.2709C17.7006 42.4227 4.71556 40.614 2.89866 30.8769C2.00932 26.0769 4.196 20.9885 7.09687 17.8279V16.1377C1.87475 20.717 -0.959426 26.5145 0.672195 33.3647C2.75473 42.1489 13.8991 47.1268 30.9092 45.4738C37.6393 44.8169 46.4481 42.6528 52.572 39.2917V34.5166C47.0152 37.8255 37.8199 40.5617 30.1615 41.2709Z" fill="#bdbdbd"/>
</svg>
